<svg xmlns="http://www.w3.org/2000/svg" viewBox="0 0 850 185" width="850" height="185" fill="none">
  <style>
    .brand-primary { fill: #184632; }
    .brand-accent { fill: #EBA64E; }
    @media (prefers-color-scheme: dark) {
      .brand-primary { fill: #4ADE80; }
      .brand-accent { fill: #FBBF24; }
    }
  </style>
  <g id="symbol">
    <path class="brand-primary" fill-rule="evenodd" d="M 238.0 0.0 L 243.0 0.0 L 247.0 2.0 L 250.0 7.0 L 250.0 12.0 L 247.0 17.0 L 245.0 18.0 L 241.0 19.0 L 236.0 18.0 L 224.0 32.0 L 226.0 41.0 L 224.0 46.0 L 220.0 50.0 L 214.0 51.0 L 207.0 48.0 L 204.0 43.0 L 204.0 35.0 L 198.0 29.0 L 189.0 29.0 L 184.0 23.0 L 184.0 19.0 L 186.0 15.0 L 188.0 13.0 L 195.0 12.0 L 200.0 15.0 L 201.0 24.0 L 207.0 30.0 L 215.0 28.0 L 219.0 29.0 L 222.0 27.0 L 231.0 16.0 L 232.0 14.0 L 231.0 7.0 L 233.0 3.0 L 238.0 0.0 Z M 239.0 1.0 L 237.0 1.0 L 233.0 4.0 L 232.0 14.0 L 235.0 17.0 L 236.0 16.0 L 239.0 18.0 L 243.0 18.0 L 248.0 14.0 L 249.0 6.0 L 244.0 1.0 L 240.0 0.0 L 239.0 1.0 Z M 168.0 47.0 L 181.0 47.0 L 196.0 52.0 L 207.0 62.0 L 212.0 71.0 L 214.0 70.0 L 219.0 61.0 L 225.0 55.0 L 240.0 48.0 L 258.0 47.0 L 274.0 51.0 L 302.0 67.0 L 340.0 95.0 L 356.0 104.0 L 369.0 108.0 L 369.0 114.0 L 368.0 115.0 L 354.0 111.0 L 337.0 102.0 L 290.0 68.0 L 280.0 62.0 L 266.0 56.0 L 262.0 56.0 L 257.0 54.0 L 246.0 54.0 L 233.0 59.0 L 231.0 61.0 L 232.0 62.0 L 240.0 60.0 L 251.0 60.0 L 266.0 64.0 L 278.0 70.0 L 292.0 79.0 L 342.0 118.0 L 344.0 118.0 L 353.0 124.0 L 360.0 127.0 L 368.0 129.0 L 369.0 130.0 L 369.0 136.0 L 364.0 136.0 L 361.0 134.0 L 358.0 134.0 L 341.0 126.0 L 321.0 112.0 L 296.0 91.0 L 270.0 74.0 L 254.0 68.0 L 238.0 68.0 L 233.0 70.0 L 231.0 72.0 L 232.0 73.0 L 247.0 74.0 L 263.0 80.0 L 286.0 94.0 L 317.0 119.0 L 340.0 135.0 L 360.0 145.0 L 363.0 145.0 L 366.0 147.0 L 378.0 150.0 L 385.0 150.0 L 386.0 149.0 L 385.0 141.0 L 380.0 139.0 L 383.0 111.0 L 382.0 110.0 L 380.0 112.0 L 377.0 112.0 L 376.0 109.0 L 373.0 106.0 L 374.0 101.0 L 379.0 90.0 L 379.0 87.0 L 381.0 82.0 L 385.0 78.0 L 390.0 78.0 L 393.0 82.0 L 394.0 80.0 L 397.0 81.0 L 400.0 78.0 L 404.0 78.0 L 409.0 82.0 L 417.0 104.0 L 417.0 107.0 L 414.0 109.0 L 414.0 111.0 L 412.0 112.0 L 408.0 111.0 L 407.0 112.0 L 410.0 139.0 L 407.0 139.0 L 405.0 141.0 L 405.0 149.0 L 404.0 150.0 L 405.0 152.0 L 413.0 152.0 L 414.0 153.0 L 414.0 160.0 L 302.0 160.0 L 300.0 145.0 L 296.0 133.0 L 290.0 121.0 L 283.0 111.0 L 272.0 100.0 L 259.0 91.0 L 257.0 91.0 L 248.0 86.0 L 237.0 83.0 L 229.0 83.0 L 224.0 89.0 L 215.0 93.0 L 211.0 93.0 L 203.0 90.0 L 196.0 83.0 L 184.0 84.0 L 166.0 91.0 L 157.0 97.0 L 143.0 110.0 L 132.0 127.0 L 125.0 147.0 L 125.0 153.0 L 123.0 160.0 L 12.0 160.0 L 12.0 152.0 L 15.0 151.0 L 17.0 135.0 L 18.0 134.0 L 18.0 125.0 L 17.0 120.0 L 15.0 118.0 L 16.0 95.0 L 18.0 89.0 L 20.0 87.0 L 26.0 85.0 L 22.0 82.0 L 20.0 77.0 L 21.0 72.0 L 23.0 69.0 L 26.0 67.0 L 32.0 67.0 L 36.0 69.0 L 38.0 72.0 L 39.0 77.0 L 36.0 83.0 L 41.0 87.0 L 42.0 90.0 L 40.0 95.0 L 39.0 103.0 L 37.0 106.0 L 32.0 107.0 L 32.0 113.0 L 34.0 116.0 L 44.0 123.0 L 42.0 142.0 L 46.0 144.0 L 50.0 149.0 L 52.0 149.0 L 70.0 143.0 L 82.0 136.0 L 84.0 136.0 L 95.0 129.0 L 134.0 98.0 L 153.0 85.0 L 175.0 75.0 L 183.0 73.0 L 195.0 73.0 L 196.0 72.0 L 195.0 71.0 L 187.0 68.0 L 171.0 68.0 L 167.0 70.0 L 164.0 70.0 L 139.0 84.0 L 124.0 95.0 L 107.0 110.0 L 89.0 123.0 L 67.0 134.0 L 56.0 136.0 L 56.0 130.0 L 57.0 129.0 L 60.0 129.0 L 70.0 125.0 L 86.0 116.0 L 132.0 80.0 L 149.0 69.0 L 162.0 63.0 L 174.0 60.0 L 186.0 60.0 L 194.0 62.0 L 195.0 61.0 L 191.0 58.0 L 179.0 54.0 L 168.0 54.0 L 157.0 57.0 L 134.0 69.0 L 100.0 94.0 L 81.0 106.0 L 66.0 113.0 L 56.0 115.0 L 56.0 109.0 L 57.0 108.0 L 69.0 104.0 L 82.0 97.0 L 132.0 61.0 L 152.0 51.0 L 168.0 47.0 Z M 394.0 52.0 L 411.0 58.0 L 408.0 63.0 L 409.0 71.0 L 408.0 72.0 L 406.0 71.0 L 406.0 63.0 L 404.0 62.0 L 403.0 63.0 L 402.0 73.0 L 395.0 77.0 L 391.0 76.0 L 388.0 73.0 L 386.0 69.0 L 387.0 63.0 L 379.0 58.0 L 394.0 52.0 Z M 31.0 86.0 L 28.0 87.0 L 34.0 95.0 L 35.0 90.0 L 33.0 86.0 L 32.0 85.0 L 31.0 86.0 Z M 192.0 102.0 L 195.0 104.0 L 200.0 103.0 L 207.0 111.0 L 216.0 116.0 L 220.0 122.0 L 226.0 124.0 L 228.0 127.0 L 233.0 127.0 L 240.0 122.0 L 247.0 121.0 L 250.0 119.0 L 252.0 121.0 L 256.0 123.0 L 259.0 123.0 L 263.0 126.0 L 264.0 129.0 L 260.0 141.0 L 255.0 145.0 L 253.0 150.0 L 247.0 152.0 L 248.0 154.0 L 247.0 159.0 L 253.0 162.0 L 253.0 166.0 L 255.0 169.0 L 255.0 172.0 L 253.0 174.0 L 246.0 177.0 L 243.0 174.0 L 239.0 175.0 L 237.0 173.0 L 234.0 173.0 L 230.0 168.0 L 226.0 170.0 L 222.0 169.0 L 218.0 165.0 L 215.0 164.0 L 212.0 165.0 L 206.0 170.0 L 206.0 174.0 L 203.0 177.0 L 199.0 178.0 L 190.0 175.0 L 186.0 170.0 L 178.0 167.0 L 175.0 164.0 L 175.0 153.0 L 173.0 143.0 L 182.0 135.0 L 178.0 132.0 L 177.0 128.0 L 173.0 127.0 L 169.0 123.0 L 164.0 123.0 L 162.0 117.0 L 171.0 108.0 L 178.0 108.0 L 179.0 107.0 L 178.0 105.0 L 186.0 105.0 L 192.0 102.0 Z M 27.0 126.0 L 26.0 139.0 L 23.0 148.0 L 24.0 152.0 L 31.0 151.0 L 32.0 146.0 L 35.0 143.0 L 35.0 129.0 L 29.0 125.0 L 27.0 126.0 Z M 394.0 141.0 L 394.0 151.0 L 396.0 152.0 L 397.0 151.0 L 396.0 141.0 L 395.0 140.0 L 394.0 141.0 Z" />
    <circle class="brand-accent" cx="240.5" cy="9.0" r="9.2" />
  </g>
  <g id="wordmark">
    <path class="brand-primary" fill-rule="evenodd" d="M 466.0 33.0 L 469.0 33.0 L 469.0 52.0 L 470.0 53.0 L 469.0 54.0 L 469.0 62.0 L 463.0 68.0 L 454.0 68.0 L 450.0 66.0 L 449.0 64.0 L 451.0 61.0 L 455.0 64.0 L 459.0 65.0 L 462.0 64.0 L 465.0 60.0 L 465.0 46.0 L 466.0 45.0 L 466.0 38.0 L 465.0 37.0 L 466.0 33.0 Z M 485.0 33.0 L 493.0 33.0 L 497.0 36.0 L 498.0 43.0 L 491.0 50.0 L 498.0 57.0 L 500.0 55.0 L 501.0 51.0 L 504.0 51.0 L 504.0 56.0 L 502.0 61.0 L 506.0 66.0 L 505.0 68.0 L 503.0 68.0 L 499.0 64.0 L 493.0 68.0 L 483.0 68.0 L 478.0 64.0 L 476.0 58.0 L 478.0 53.0 L 483.0 49.0 L 482.0 45.0 L 480.0 43.0 L 480.0 39.0 L 485.0 33.0 Z M 512.0 33.0 L 516.0 33.0 L 516.0 49.0 L 517.0 50.0 L 534.0 33.0 L 539.0 33.0 L 525.0 48.0 L 525.0 50.0 L 538.0 64.0 L 540.0 67.0 L 539.0 68.0 L 535.0 68.0 L 521.0 52.0 L 516.0 57.0 L 516.0 68.0 L 512.0 68.0 L 512.0 33.0 Z M 487.0 37.0 L 485.0 38.0 L 484.0 41.0 L 488.0 47.0 L 494.0 42.0 L 494.0 39.0 L 491.0 36.0 L 487.0 37.0 Z M 484.0 53.0 L 480.0 58.0 L 481.0 61.0 L 484.0 64.0 L 490.0 65.0 L 493.0 64.0 L 496.0 61.0 L 487.0 52.0 L 484.0 53.0 Z M 549.0 81.0 L 560.0 81.0 L 561.0 82.0 L 561.0 160.0 L 550.0 160.0 L 550.0 156.0 L 548.0 155.0 L 545.0 158.0 L 539.0 161.0 L 534.0 162.0 L 525.0 161.0 L 518.0 158.0 L 513.0 154.0 L 510.0 149.0 L 507.0 141.0 L 507.0 125.0 L 512.0 114.0 L 517.0 109.0 L 525.0 105.0 L 530.0 105.0 L 531.0 104.0 L 539.0 105.0 L 547.0 110.0 L 548.0 109.0 L 548.0 82.0 L 549.0 81.0 Z M 656.0 83.0 L 666.0 84.0 L 671.0 86.0 L 681.0 94.0 L 681.0 96.0 L 673.0 103.0 L 667.0 98.0 L 660.0 95.0 L 653.0 95.0 L 647.0 98.0 L 645.0 101.0 L 645.0 107.0 L 649.0 112.0 L 671.0 120.0 L 679.0 127.0 L 682.0 133.0 L 682.0 144.0 L 678.0 153.0 L 668.0 160.0 L 659.0 162.0 L 643.0 160.0 L 634.0 155.0 L 628.0 148.0 L 635.0 140.0 L 639.0 141.0 L 645.0 147.0 L 653.0 150.0 L 662.0 149.0 L 666.0 147.0 L 669.0 142.0 L 669.0 137.0 L 665.0 132.0 L 640.0 122.0 L 634.0 116.0 L 632.0 111.0 L 632.0 99.0 L 635.0 93.0 L 643.0 86.0 L 656.0 83.0 Z M 449.0 85.0 L 500.0 85.0 L 500.0 96.0 L 463.0 96.0 L 462.0 97.0 L 462.0 114.0 L 463.0 115.0 L 496.0 115.0 L 496.0 127.0 L 463.0 127.0 L 462.0 128.0 L 462.0 147.0 L 463.0 148.0 L 475.0 148.0 L 476.0 149.0 L 485.0 149.0 L 486.0 148.0 L 498.0 148.0 L 499.0 149.0 L 500.0 148.0 L 501.0 149.0 L 501.0 159.0 L 500.0 160.0 L 450.0 160.0 L 449.0 159.0 L 449.0 85.0 Z M 753.0 90.0 L 765.0 90.0 L 765.0 105.0 L 766.0 106.0 L 779.0 106.0 L 779.0 116.0 L 766.0 116.0 L 765.0 117.0 L 765.0 146.0 L 769.0 150.0 L 779.0 149.0 L 781.0 155.0 L 780.0 160.0 L 771.0 162.0 L 762.0 161.0 L 758.0 159.0 L 753.0 152.0 L 752.0 149.0 L 752.0 117.0 L 751.0 116.0 L 743.0 116.0 L 743.0 106.0 L 751.0 106.0 L 752.0 105.0 L 752.0 91.0 L 753.0 90.0 Z M 714.0 104.0 L 725.0 106.0 L 733.0 111.0 L 738.0 118.0 L 740.0 124.0 L 740.0 137.0 L 702.0 137.0 L 701.0 138.0 L 704.0 145.0 L 707.0 148.0 L 714.0 151.0 L 723.0 150.0 L 731.0 144.0 L 738.0 150.0 L 737.0 154.0 L 732.0 158.0 L 720.0 162.0 L 708.0 161.0 L 698.0 156.0 L 692.0 149.0 L 688.0 138.0 L 689.0 123.0 L 693.0 115.0 L 699.0 109.0 L 705.0 106.0 L 714.0 104.0 Z M 572.0 106.0 L 584.0 106.0 L 584.0 140.0 L 586.0 145.0 L 592.0 150.0 L 600.0 150.0 L 607.0 143.0 L 608.0 140.0 L 608.0 106.0 L 620.0 106.0 L 621.0 107.0 L 621.0 141.0 L 617.0 152.0 L 611.0 158.0 L 605.0 161.0 L 592.0 162.0 L 581.0 158.0 L 576.0 153.0 L 572.0 145.0 L 572.0 106.0 Z M 788.0 106.0 L 800.0 106.0 L 800.0 140.0 L 801.0 144.0 L 808.0 150.0 L 818.0 149.0 L 823.0 143.0 L 824.0 140.0 L 824.0 106.0 L 836.0 106.0 L 837.0 108.0 L 836.0 109.0 L 837.0 110.0 L 836.0 111.0 L 837.0 112.0 L 836.0 144.0 L 834.0 150.0 L 827.0 158.0 L 820.0 161.0 L 811.0 162.0 L 801.0 160.0 L 792.0 154.0 L 788.0 146.0 L 788.0 138.0 L 787.0 137.0 L 787.0 116.0 L 788.0 115.0 L 787.0 107.0 L 788.0 106.0 Z M 711.0 116.0 L 709.0 116.0 L 704.0 120.0 L 702.0 123.0 L 703.0 128.0 L 726.0 128.0 L 728.0 126.0 L 725.0 119.0 L 721.0 116.0 L 719.0 115.0 L 712.0 115.0 L 711.0 116.0 Z M 528.0 117.0 L 522.0 122.0 L 520.0 126.0 L 520.0 132.0 L 519.0 133.0 L 520.0 140.0 L 522.0 144.0 L 527.0 149.0 L 529.0 150.0 L 539.0 150.0 L 547.0 142.0 L 548.0 127.0 L 546.0 122.0 L 539.0 116.0 L 529.0 116.0 L 528.0 117.0 Z" />
  </g>
</svg>